<svg xmlns="http://www.w3.org/2000/svg" viewBox="0 0 579.19 337.29"><defs><style>.cls-1{fill:#3a8dff}</style></defs><g id="Layer_2" data-name="Layer 2"><g id="Layer_1-2" data-name="Layer 1"><path fill="#fff" d="M160.56 116.55a20 20 0 002.35-.13 7.54 7.54 0 002.09-.54 3.6 3.6 0 001.54-1.28 4 4 0 00.61-2.35V80a2.28 2.28 0 01.87-1.81 2.9 2.9 0 011.95-.74h15.19a2.68 2.68 0 011.89.74 2.37 2.37 0 01.8 1.81v34.8a4.72 4.72 0 003.23 1.41 29.38 29.38 0 004 .34h4.57v20.84h-1.07c-1.44 0-3.05 0-4.84-.14a44.73 44.73 0 01-5.45-.6 37.27 37.27 0 01-5.44-1.35 14.9 14.9 0 01-4.71-2.48 25 25 0 01-11.56 3.83 163.7 163.7 0 01-16.8.74h-28.34q-13.71 0-22.72-2.56t-14.25-7.46a26.24 26.24 0 01-7.33-12 56.78 56.78 0 01-2.08-16.07q0-3.63.33-7.26c.22-2.42.61-5.06 1.15-7.93a4.17 4.17 0 01.87-2 2.71 2.71 0 012.08-.67h13.18a2.63 2.63 0 011.81.67 2.09 2.09 0 01.61 1.89c0 1.8-.07 3.5-.2 5.11s-.2 3-.2 4.31a39.62 39.62 0 001.2 10.41 14.7 14.7 0 004.37 7.2 19.94 19.94 0 008.61 4.17 59.92 59.92 0 0013.91 1.34zM109.2 54.84a2.92 2.92 0 011-2.22 3.21 3.21 0 012.28-.87h11.7a3.49 3.49 0 012.35.87 2.84 2.84 0 011 2.22v12.77a2.63 2.63 0 01-1.08 2.09 3.58 3.58 0 01-2.28.87h-11.7a3.21 3.21 0 01-2.28-.87 2.77 2.77 0 01-1-2.09zm27.3 0a2.74 2.74 0 011.07-2.22 3.59 3.59 0 012.29-.87h11.69a3.25 3.25 0 012.29.87 2.94 2.94 0 01.94 2.22v12.77a2.79 2.79 0 01-.94 2.09 3.25 3.25 0 01-2.29.87h-11.69a3.59 3.59 0 01-2.29-.87 2.61 2.61 0 01-1.07-2.09z"/><path fill="#fff" d="M190.94 154.19a2.88 2.88 0 01.95-2.21 3.2 3.2 0 012.28-.88h11.7a3.45 3.45 0 012.35.88 2.8 2.8 0 011 2.21v12.91a2.49 2.49 0 01-1.08 2 3.58 3.58 0 01-2.28.87h-11.7a3.23 3.23 0 01-2.28-.87 2.61 2.61 0 01-.95-2zm3.37-36.19c0-.45.51-.81 1.54-1.08a11 11 0 012.76-.4h7.79a9.6 9.6 0 004-.54c.67-.36 1-1.57 1-3.63V97.32q0-8.59-.27-17.88a2.47 2.47 0 01.74-1.81 2.64 2.64 0 012-.74h14.79a2.79 2.79 0 013.09 2.55q.13 4.17.2 7.6c.05 2.28.09 4.44.14 6.45s.06 4 .06 6.05v6.39q0 9.94-.13 16.06t-.54 10a6.67 6.67 0 01-.87 2.29 4.07 4.07 0 01-2.22 1.47 36.7 36.7 0 01-4.5.74q-2.9.35-6.32.54t-7.06.27q-3.63.08-6.59.07h-5.24a11.47 11.47 0 01-2.76-.4c-1-.27-1.54-.63-1.54-1.08zm23.93 36.16a2.71 2.71 0 011.07-2.21 3.55 3.55 0 012.29-.88h11.69a3.22 3.22 0 012.29.88 2.87 2.87 0 01.94 2.21v12.94a2.6 2.6 0 01-.94 2 3.25 3.25 0 01-2.29.87H221.6a3.59 3.59 0 01-2.29-.87 2.48 2.48 0 01-1.07-2zM252.65 153.92a2.14 2.14 0 012.42-2.42h12.77a71.23 71.23 0 009-.47 18.93 18.93 0 006.11-1.68 7.83 7.83 0 003.57-3.36 13.88 13.88 0 001.41-5.38v-3.22h-7.26q-15.47 0-24.07-7.73t-8.6-22.79v-2.29q0-16.93 9.74-25.88T286 69.76c1.71 0 3.59.07 5.65.21s4 .29 5.92.47 3.63.4 5.24.67a18.84 18.84 0 013.76.94 9.91 9.91 0 011.89 1.14 2 2 0 01.53 1.55v41.81h11.7v20.84h-12.1v4.17q-.81 8.73-4 14.31a24.61 24.61 0 01-8.14 8.68 31.21 31.21 0 01-11.16 4.23 72.11 72.11 0 01-13 1.14h-3.63c-1.7 0-3.47 0-5.31-.13l-5.24-.27a18.17 18.17 0 01-3.43-.4 2.36 2.36 0 01-1.61-.94 3.38 3.38 0 01-.41-1.75zM268 104.18q0 6.58 2.76 9.82t9.34 3.22h8.2v-28.5c-1-.09-2-.16-3.09-.2s-2.11-.07-3.09-.07q-6.87 0-10.49 3.9T268 103z"/><path fill="#fff" d="M315.3 119.1c0-.71.47-1.32 1.41-1.81a6.21 6.21 0 012.89-.74h67.63c.09-1 .15-2.22.2-3.7s.07-2.71.07-3.69q0-10-6.19-14.26T363 90.6h-30c-2.24 0-3.41-.8-3.5-2.42 0-.18 0-.54-.07-1.07s-.09-1.1-.13-1.68-.07-1.15-.07-1.68v-1a34.77 34.77 0 01.61-6.65 38 38 0 011.75-6.25q1.14-3.09 2.75-6.46c1.08-2.23 2.33-4.65 3.77-7.25L348.37 37a9 9 0 011.55-1.88 3.32 3.32 0 012.35-.81h15.6a1.91 1.91 0 011.48.47 1.71 1.71 0 01.4 1.14 3.3 3.3 0 01-.4 1.48l-12.64 23.89c-.36.72-.76 1.57-1.21 2.56s-.9 2-1.34 3-.86 2-1.22 2.83a6 6 0 00-.53 1.68q4.83-.27 8.27-.41c2.28-.08 4.18-.13 5.71-.13a63.6 63.6 0 0118.95 2.49 33.92 33.92 0 0113.05 7.19 29.64 29.64 0 017.66 11.5 44.21 44.21 0 012.69 15v5.65c0 1.7-.05 3-.14 3.9h10.09v20.84H319.6a6.64 6.64 0 01-2.89-.67c-.94-.45-1.41-1-1.41-1.75z"/><path fill="#fff" d="M413.31 118c0-.45.51-.81 1.54-1.08a11 11 0 012.76-.4h8.2a9.69 9.69 0 003.9-.54c.72-.36 1.07-1.57 1.07-3.63V37.09a2.77 2.77 0 012.83-2.82h15.46a2.57 2.57 0 011.88.81 2.71 2.71 0 01.81 2v78.52c0 2.69-.07 5.44-.2 8.27s-.34 5.53-.61 8.13a6.67 6.67 0 01-.87 2.29 4.07 4.07 0 01-2.22 1.47 36.51 36.51 0 01-4.64.74q-3 .35-6.52.54t-7.26.27q-3.76.08-6.72.07h-5.11a11.47 11.47 0 01-2.76-.4c-1-.27-1.54-.63-1.54-1.08zM471.12 37.09a2.82 2.82 0 01.74-2 2.66 2.66 0 012.08-.81h15.33a2.77 2.77 0 012.82 2.82v97.47a2.79 2.79 0 01-.81 1.95 2.61 2.61 0 01-2 .88h-15.34a2.54 2.54 0 01-2.08-.88 2.9 2.9 0 01-.74-1.95zM75.05 267.8q0-4.31.4-9.21c.27-3.27.59-5.89.94-7.87s1.39-2.86 3.1-2.95c.54 0 1.41 0 2.62-.07l4-.14c1.44 0 2.87-.06 4.31-.06h35l-3.22-6.73-2.29-4.7a34.43 34.43 0 00-4.57-6.92 26.16 26.16 0 00-6.52-5.45 35 35 0 00-8.87-3.63 45.12 45.12 0 00-11.5-1.34h-1.23q-.75 0-1.68.06c-.63.05-1.21.07-1.75.07h-1.35a3.38 3.38 0 01-2.21-.54 2.38 2.38 0 01-.61-1.88v-12.5c0-1.44.94-2.33 2.82-2.69q3.77-.67 6.66-.94t6.79-.27a58.88 58.88 0 0114.45 1.68 38.55 38.55 0 0112.3 5.51 47 47 0 0110.49 10 77.22 77.22 0 019 15.19l1.88 4c.27.54.58 1.21.94 2s.74 1.64 1.14 2.49.79 1.63 1.15 2.35a9.68 9.68 0 00.94 1.61 3.93 3.93 0 001.41 1.62c.49.26 76.14.4 77 .4h1.48v20.91H100.59c-1.88 0-3.45 0-4.7.13a14.26 14.26 0 00-.13 1.68v1.15c.17 4.57.94 8 2.28 10.21s3.67 3.63 7 4.17l.81.14a2.28 2.28 0 012.15 2.41v12.1q0 3.1-3 3.1h-.54a32.81 32.81 0 01-12-2.09 24.19 24.19 0 01-9.28-6.38 29.65 29.65 0 01-6-10.89 51.12 51.12 0 01-2.13-15.73zm40.06 19.85a2.83 2.83 0 011-2.23 3.28 3.28 0 012.22-.88h11.29a3.48 3.48 0 012.36.88 2.82 2.82 0 011 2.23v12.05a2.71 2.71 0 01-1 2.11 3.53 3.53 0 01-2.36.88h-11.28a3.33 3.33 0 01-2.22-.88 2.72 2.72 0 01-1-2.11z"/><path fill="#fff" d="M152.3 248.44c0-.45.51-.81 1.54-1.08a11 11 0 012.76-.4h143.85a17.68 17.68 0 003.83-.47 3.29 3.29 0 002.62-2.63 3.46 3.46 0 00.27-1.28v-11.26a35.16 35.16 0 012.36-13.42 26.33 26.33 0 016.52-9.57 27.23 27.23 0 0110-5.8 43.57 43.57 0 0125.55-.07 26 26 0 019.74 5.66 25.43 25.43 0 016.26 9.43 36.64 36.64 0 012.21 13.33v8.22a37.5 37.5 0 01-2.21 13.61 25.43 25.43 0 01-6.26 9.43 24.56 24.56 0 01-9.81 5.52 44.35 44.35 0 01-12.91 1.75 64.19 64.19 0 01-6.58-.34 41.26 41.26 0 01-6.46-1.14 35.12 35.12 0 01-5.71-2 14.58 14.58 0 01-4.24-2.83 15.85 15.85 0 01-7.12 3.7c-2.78.67-145.87 1-149.64 1h137.55c-.81 0-141.55-.14-142.58-.41s-1.54-.62-1.54-1.07zm175-10.76a30.87 30.87 0 00.4 5.11q.94 4.31 3.77 5.92a14.23 14.23 0 007.12 1.61c3.68 0 6.43-.94 8.27-2.82s2.76-5.29 2.76-10.22V232q0-7.26-2.69-10.29c-1.79-2-4.57-3-8.34-3s-6.58 1-8.47 3-2.82 5.45-2.82 10.29zM369.82 284.49c0-1.54.81-2.31 2.42-2.31h2.69a55.09 55.09 0 005.85-.27 8.15 8.15 0 004-1.41 6.63 6.63 0 002.29-3.35 20.09 20.09 0 00.74-6.1v-60.66a2.34 2.34 0 01.81-1.81 2.81 2.81 0 012-.74h15.19a2.68 2.68 0 011.89.74 2.37 2.37 0 01.8 1.81V247h11.7v20.8H408v4.84a53.13 53.13 0 01-.67 8.74 26.45 26.45 0 01-2.15 7.12 19.55 19.55 0 01-9.21 9.14q-5.85 2.7-14.58 2.69h-1.89c-.8 0-1.68 0-2.62-.06s-1.88-.12-2.82-.21-1.73-.18-2.35-.27c-1.26-.27-1.89-1.17-1.89-2.71z"/><path fill="#fff" d="M413.59 248.44c0-.45.52-.81 1.55-1.08a10.92 10.92 0 012.75-.4h6.32a20.8 20.8 0 002.29-.14 7.29 7.29 0 002.15-.53 3.6 3.6 0 001.54-1.28 4 4 0 00.61-2.35v-32.27a2.42 2.42 0 01.74-1.81 2.77 2.77 0 012.08-.74h15.19a2.68 2.68 0 011.89.74 2.37 2.37 0 01.8 1.81v34.82a2.86 2.86 0 001.35.88 12.61 12.61 0 002.08.53 17.67 17.67 0 002.22.27c.71.05 1.34.07 1.88.07h4.17v20.84h-1.75a71.64 71.64 0 01-11.23-.88 20.59 20.59 0 01-9.34-3.69 17.55 17.55 0 01-4.37 2.21 38.21 38.21 0 01-5.11 1.42 42.62 42.62 0 01-5.24.74c-1.75.13-3.43.2-5 .2h-3.23a11 11 0 01-2.75-.41c-1-.26-1.55-.62-1.55-1.07zm16.94 38.85a2.79 2.79 0 011-2.22 3.31 3.31 0 012.22-.87h13.31a3.49 3.49 0 012.35.87 2.82 2.82 0 011 2.22v12.91a2.57 2.57 0 01-1 1.95 3.49 3.49 0 01-2.35.87h-13.3a3.31 3.31 0 01-2.22-.87 2.54 2.54 0 01-1-1.95z"/><path fill="#fff" d="M454.26 248.44c0-.45.52-.81 1.55-1.08a11 11 0 012.76-.4h7.79a9.63 9.63 0 004-.54c.67-.36 1-1.57 1-3.63v-15.06q0-8.59-.27-17.88a2.44 2.44 0 01.74-1.81 2.64 2.64 0 011.95-.74h14.79a2.79 2.79 0 013.09 2.55c.09 2.78.15 5.31.2 7.6s.09 4.44.13 6.45.07 4 .07 6v6.39q0 9.94-.13 16.06t-.54 10a6.67 6.67 0 01-.87 2.29 4.07 4.07 0 01-2.22 1.47 36.58 36.58 0 01-4.51.74q-2.88.34-6.32.54t-7.05.27q-3.63.07-6.59.07h-5.24a11 11 0 01-2.76-.41c-1-.26-1.55-.62-1.55-1.07zm4.31-69.78a2.91 2.91 0 01.94-2.22 3.23 3.23 0 012.28-.87h11.7a3.49 3.49 0 012.35.87 2.84 2.84 0 011 2.22v12.77a2.61 2.61 0 01-1.08 2.09 3.54 3.54 0 01-2.28.87h-11.7a3.23 3.23 0 01-2.28-.87 2.74 2.74 0 01-.94-2.09zm27.29 0a2.74 2.74 0 011.07-2.22 3.59 3.59 0 012.29-.87h11.7a3.25 3.25 0 012.28.87 2.91 2.91 0 01.94 2.22v12.77a2.74 2.74 0 01-.94 2.09 3.25 3.25 0 01-2.28.87h-11.7a3.59 3.59 0 01-2.29-.87 2.6 2.6 0 01-1.07-2.09z"/><path fill="#fff" class="cls-1" d="M0 0h41.93v20H22.8v297.33h19.13v20H0zM579.19 337.29h-41.93v-20h19.13V20h-19.13V0h41.93z"/></g></g></svg>